<?xml version="1.0" standalone="no"?>
<!DOCTYPE svg PUBLIC "-//W3C//DTD SVG 20010904//EN"
 "http://www.w3.org/TR/2001/REC-SVG-20010904/DTD/svg10.dtd">
<svg version="1.0" xmlns="http://www.w3.org/2000/svg"
 width="30px" height="30px" viewBox="0 0 200.000000 200.000000"
 preserveAspectRatio="xMidYMid meet">
<metadata>
Created by potrace 1.16, written by Peter Selinger 2001-2019
</metadata>
<g transform="translate(0.000000,200.000000) scale(0.100000,-0.100000)"
fill="#f1f1f1" stroke="none">
<path d="M980 1473 c-36 -10 -85 -30 -110 -45 -52 -30 -135 -111 -155 -149
-13 -24 -21 -27 -85 -31 -156 -11 -293 -128 -325 -277 -14 -64 -7 -165 15
-224 23 -62 93 -146 152 -183 80 -51 117 -54 598 -54 366 0 455 3 496 15 125
37 216 160 218 292 1 101 -25 165 -94 234 -37 37 -71 61 -97 69 -38 12 -43 18
-62 71 -46 124 -163 237 -285 275 -80 24 -190 27 -266 7z"/>
<path d="M1465 1465 c-69 -27 -70 -34 -14 -95 54 -59 103 -138 114 -183 5 -19
19 -32 50 -46 85 -38 159 -122 190 -220 l17 -50 37 15 c149 62 163 290 22 365
-22 11 -45 37 -63 71 -37 68 -58 89 -120 123 -64 35 -170 44 -233 20z"/>
<path d="M423 1376 c-58 -19 -109 -52 -139 -92 -18 -23 -35 -34 -53 -34 -33 0
-109 -34 -140 -63 -35 -33 -71 -116 -71 -166 0 -130 98 -240 216 -241 l41 0
-9 48 c-38 202 148 437 359 450 75 5 90 24 46 60 -58 47 -167 63 -250 38z"/>
</g>
</svg>
