<?xml version="1.0" standalone="no"?>
<!DOCTYPE svg PUBLIC "-//W3C//DTD SVG 20010904//EN"
 "http://www.w3.org/TR/2001/REC-SVG-20010904/DTD/svg10.dtd">
<svg version="1.0" xmlns="http://www.w3.org/2000/svg"
 width="30px" height="30px" viewBox="0 0 200.000000 200.000000"
 preserveAspectRatio="xMidYMid meet">
<metadata>
Created by potrace 1.16, written by Peter Selinger 2001-2019
</metadata>
<g transform="translate(0.000000,200.000000) scale(0.100000,-0.100000)"
fill="#FFD748" stroke="none">
<path d="M966 1974 c-13 -13 -16 -43 -16 -168 0 -163 4 -176 50 -176 46 0 50
13 50 176 0 162 -6 184 -50 184 -10 0 -26 -7 -34 -16z"/>
<path d="M297 1703 c-4 -3 -7 -20 -7 -38 0 -26 16 -47 104 -133 104 -103 134
-120 164 -90 30 30 13 60 -90 164 -86 88 -107 104 -133 104 -18 0 -35 -3 -38
-7z"/>
<path d="M1532 1607 c-103 -105 -120 -135 -90 -165 30 -30 60 -13 165 90 97
96 104 105 101 138 -3 32 -6 35 -38 38 -33 3 -42 -4 -138 -101z"/>
<path d="M891 1495 c-101 -23 -168 -61 -247 -139 -81 -81 -117 -147 -140 -256
-27 -127 -2 -264 67 -371 43 -67 137 -152 204 -184 61 -28 168 -55 225 -55 57
0 171 28 228 56 65 32 160 118 202 184 91 141 100 342 24 498 -32 65 -118 159
-183 201 -105 68 -257 94 -380 66z"/>
<path d="M26 1034 c-9 -8 -16 -24 -16 -34 0 -44 22 -50 184 -50 163 0 176 4
176 50 0 46 -13 50 -176 50 -125 0 -155 -3 -168 -16z"/>
<path d="M1642 1038 c-7 -7 -12 -24 -12 -38 0 -46 13 -50 176 -50 162 0 184 6
184 50 0 44 -22 50 -184 50 -105 0 -156 -4 -164 -12z"/>
<path d="M393 468 c-97 -96 -104 -105 -101 -138 3 -32 6 -35 38 -38 33 -3 42
4 138 101 103 105 120 135 90 165 -30 30 -60 13 -165 -90z"/>
<path d="M1442 558 c-30 -30 -13 -60 90 -165 96 -97 105 -104 138 -101 32 3
35 6 38 38 3 33 -4 42 -101 138 -105 103 -135 120 -165 90z"/>
<path d="M962 358 c-8 -8 -12 -59 -12 -164 0 -162 6 -184 50 -184 44 0 50 22
50 184 0 163 -4 176 -50 176 -14 0 -31 -5 -38 -12z"/>
</g>
</svg>
