<?xml version="1.0" standalone="no"?>
<!DOCTYPE svg PUBLIC "-//W3C//DTD SVG 20010904//EN"
 "http://www.w3.org/TR/2001/REC-SVG-20010904/DTD/svg10.dtd">
<svg version="1.0" xmlns="http://www.w3.org/2000/svg"
 width="30px" height="30px" viewBox="0 0 200.000000 200.000000"
 preserveAspectRatio="xMidYMid meet">
<metadata>
Created by potrace 1.16, written by Peter Selinger 2001-2019
</metadata>
<g transform="translate(0.000000,200.000000) scale(0.100000,-0.100000)"
fill="#dadada" stroke="none">
<path d="M689 1946 c-405 -153 -655 -536 -636 -971 7 -148 33 -259 92 -383 58
-122 114 -199 211 -292 134 -127 264 -200 443 -247 82 -22 117 -26 246 -26
128 0 164 4 245 25 240 64 446 209 578 407 68 102 86 142 78 175 -8 34 -28 38
-104 19 -101 -25 -284 -22 -395 5 -347 86 -611 363 -677 712 -28 145 -6 365
49 493 24 55 26 88 9 105 -18 18 -45 14 -139 -22z"/>
</g>
</svg>
