<?xml version="1.0" standalone="no"?>
<!DOCTYPE svg PUBLIC "-//W3C//DTD SVG 20010904//EN"
 "http://www.w3.org/TR/2001/REC-SVG-20010904/DTD/svg10.dtd">
<svg version="1.0" xmlns="http://www.w3.org/2000/svg"
 width="30px" height="30px" viewBox="0 0 200.000000 200.000000"
 preserveAspectRatio="xMidYMid meet">
<metadata>
Created by potrace 1.16, written by Peter Selinger 2001-2019
</metadata>
<g transform="translate(0.000000,200.000000) scale(0.100000,-0.100000)"
fill="#000000" stroke="none">
<path fill="#FFD748" d="M1255 1688 c-3 -8 -4 -68 -3 -134 l3 -119 40 0 40 0 0 130 0 130 -38
3 c-24 2 -39 -1 -42 -10z"/>
<path fill="#FFD748" d="M805 1496 c-20 -30 -13 -45 48 -104 36 -35 55 -46 106 -56 60 -12 61
-12 61 9 0 28 -150 175 -179 175 -11 0 -28 -11 -36 -24z"/>
<path fill="#FFD748" d="M1663 1448 c-41 -40 -79 -81 -85 -91 -13 -25 15 -67 45 -67 30 0 177
147 177 177 0 20 -33 53 -53 53 -5 0 -43 -33 -84 -72z"/>
<path fill="#FFD748" d="M1230 1369 c-47 -9 -150 -56 -150 -67 0 -4 26 -23 57 -42 87 -54 169
-163 206 -272 3 -9 29 -29 57 -43 63 -32 120 -83 145 -129 11 -20 23 -36 27
-36 15 0 58 87 74 150 45 176 -55 365 -225 425 -54 19 -138 25 -191 14z"/>
<path fill="#ebebeb" d="M708 1291 c-96 -31 -190 -101 -249 -187 -28 -41 -30 -42 -96 -46
-194 -11 -352 -182 -353 -379 0 -102 63 -233 145 -301 17 -14 50 -36 75 -49
l45 -24 535 0 c504 0 537 1 570 19 72 38 119 86 152 154 29 59 33 76 32 147 0
61 -6 92 -23 132 -28 64 -109 142 -174 169 -38 15 -49 26 -58 54 -48 148 -159
260 -307 309 -79 27 -213 28 -294 2z"/>
<path fill="#FFD748" d="M1722 1048 c-7 -7 -12 -21 -12 -33 0 -39 18 -45 142 -45 109 0 118 1
129 21 8 16 8 28 0 45 -10 23 -14 24 -129 24 -78 0 -122 -4 -130 -12z"/>
<path fill="#FFD748" d="M1603 732 c-7 -4 -9 -24 -6 -54 5 -42 12 -54 68 -108 65 -62 92 -72
119 -44 30 29 18 56 -62 136 -76 75 -94 86 -119 70z"/>
</g>
</svg>
