<?xml version="1.0" standalone="no"?>
<!DOCTYPE svg PUBLIC "-//W3C//DTD SVG 20010904//EN"
 "http://www.w3.org/TR/2001/REC-SVG-20010904/DTD/svg10.dtd">
<svg version="1.0" xmlns="http://www.w3.org/2000/svg"
 width="30px" height="30px" viewBox="0 0 200.000000 200.000000"
 preserveAspectRatio="xMidYMid meet">
<metadata>
Created by potrace 1.16, written by Peter Selinger 2001-2019
</metadata>
<g transform="translate(0.000000,200.000000) scale(0.100000,-0.100000)"
fill="#000000" stroke="none">
<path fill="#dadada" d="M1298 1666 c-75 -32 -132 -72 -195 -138 -48 -51 -113 -161 -113 -190
0 -7 27 -25 60 -41 106 -49 219 -172 255 -278 13 -37 22 -47 60 -62 98 -41
191 -165 203 -274 5 -43 5 -44 36 -37 153 32 287 130 360 263 22 41 26 58 19
74 -10 21 -16 22 -144 22 l-135 0 -77 38 c-135 67 -222 181 -247 324 -12 68
-2 154 24 218 21 49 20 68 -2 88 -24 22 -35 21 -104 -7z"/>
<path fill="#ebebeb" d="M717 1299 c-89 -21 -205 -100 -257 -176 l-35 -50 -69 -6 c-133 -11
-255 -99 -314 -225 -23 -49 -27 -70 -27 -147 0 -78 4 -99 29 -153 37 -81 131
-171 213 -203 58 -23 59 -24 538 -24 552 0 544 -1 639 86 75 68 101 129 101
239 0 66 -5 95 -22 132 -29 63 -95 127 -165 161 -32 15 -58 32 -58 39 0 32
-65 144 -112 194 -94 100 -201 145 -341 143 -45 -1 -99 -5 -120 -10z"/>
</g>
</svg>
