<?xml version="1.0" standalone="no"?>
<!DOCTYPE svg PUBLIC "-//W3C//DTD SVG 20010904//EN"
 "http://www.w3.org/TR/2001/REC-SVG-20010904/DTD/svg10.dtd">
<svg version="1.0" xmlns="http://www.w3.org/2000/svg"
 width="30px" height="30px" viewBox="0 0 200.000000 200.000000"
 preserveAspectRatio="xMidYMid meet">
<metadata>
Created by potrace 1.16, written by Peter Selinger 2001-2019
</metadata>
<g transform="translate(0.000000,200.000000) scale(0.100000,-0.100000)"
fill="#9EE2FF" stroke="none">
<path d="M638 1763 c-191 -262 -367 -553 -442 -733 -67 -159 -67 -154 -6 -168
80 -19 229 -15 318 8 42 11 105 21 140 22 54 3 63 6 66 23 2 11 9 49 16 85 19
106 80 220 163 304 40 40 98 87 130 105 35 20 55 37 51 44 -18 32 -203 299
-243 352 -81 107 -85 106 -193 -42z"/>
<path d="M1185 1401 c-184 -52 -332 -204 -380 -388 -19 -73 -19 -203 0 -276
49 -190 209 -348 396 -392 279 -65 557 86 651 355 34 98 32 258 -4 357 -81
224 -283 364 -523 362 -44 0 -107 -8 -140 -18z m8 -285 c51 -21 67 -54 67
-137 0 -67 -2 -73 -34 -105 -47 -47 -95 -47 -142 0 -33 33 -34 37 -34 108 0
83 14 112 64 134 39 17 40 17 79 0z m283 -12 c11 -17 -2 -46 -107 -239 -66
-121 -127 -225 -135 -232 -19 -14 -41 -7 -49 16 -5 17 227 459 249 473 15 10
27 5 42 -18z m106 -223 c29 -26 32 -35 36 -97 7 -102 -31 -157 -107 -157 -85
0 -136 109 -100 212 25 70 115 92 171 42z"/>
<path d="M525 800 c-105 -29 -225 -35 -315 -16 -41 9 -78 16 -82 16 -13 0 -9
-111 7 -185 70 -336 408 -552 750 -480 81 17 219 82 254 119 23 24 23 26 5 32
-82 26 -175 85 -245 155 -89 88 -150 199 -171 312 l-13 67 -60 -1 c-33 0 -91
-9 -130 -19z"/>
</g>
</svg>
