<?xml version="1.0" standalone="no"?>
<!DOCTYPE svg PUBLIC "-//W3C//DTD SVG 20010904//EN"
 "http://www.w3.org/TR/2001/REC-SVG-20010904/DTD/svg10.dtd">
<svg version="1.0" xmlns="http://www.w3.org/2000/svg"
 width="30px" height="30px" viewBox="0 0 200.000000 200.000000"
 preserveAspectRatio="xMidYMid meet">
<metadata>
Created by potrace 1.16, written by Peter Selinger 2001-2019
</metadata>
<g transform="translate(0.000000,200.000000) scale(0.100000,-0.100000)"
fill="#000000" stroke="none">
<path fill="#ebebeb" d="M936 1914 c-77 -19 -171 -65 -231 -115 -52 -43 -140 -147 -149 -176
-5 -15 -14 -17 -48 -15 -60 5 -175 -21 -244 -55 -131 -63 -231 -206 -255 -363
-23 -145 29 -297 136 -405 66 -66 139 -110 219 -131 80 -22 1238 -20 1321 2
175 45 294 190 303 369 7 136 -34 241 -128 329 -48 45 -138 96 -170 96 -10 0
-23 25 -37 73 -57 185 -232 346 -425 392 -78 18 -214 18 -292 -1z"/>
<path fill="#9EE2FF" d="M632 550 c-10 -11 -40 -51 -66 -90 -37 -54 -47 -76 -42 -95 7 -27 45
-42 70 -28 25 14 126 166 126 190 0 41 -57 56 -88 23z"/>
<path fill="#9EE2FF" d="M1014 562 c-19 -12 -124 -169 -124 -184 0 -25 37 -51 63 -44 26 6
137 159 137 188 0 35 -47 60 -76 40z"/>
<path fill="#9EE2FF" d="M1373 548 c-27 -30 -113 -157 -113 -168 0 -4 8 -18 18 -30 31 -38 61
-21 125 70 31 44 57 91 57 103 0 49 -52 63 -87 25z"/>
<path fill="#9EE2FF" d="M389 214 c-55 -76 -61 -90 -53 -113 7 -19 17 -27 41 -29 28 -3 36 3
92 82 34 46 61 93 61 103 0 27 -19 43 -51 43 -23 0 -38 -14 -90 -86z"/>
<path fill="#9EE2FF" d="M770 230 c-67 -93 -75 -112 -60 -139 9 -17 19 -21 43 -19 26 3 40 16
89 83 31 44 58 89 58 101 0 28 -19 44 -51 44 -22 0 -37 -13 -79 -70z"/>
<path fill="#9EE2FF" d="M1137 221 c-31 -44 -57 -90 -57 -103 0 -53 54 -65 92 -20 61 74 100
140 96 168 -3 25 -8 29 -38 32 -34 3 -38 -1 -93 -77z"/>
</g>
</svg>
