<?xml version="1.0" standalone="no"?>
<!DOCTYPE svg PUBLIC "-//W3C//DTD SVG 20010904//EN"
 "http://www.w3.org/TR/2001/REC-SVG-20010904/DTD/svg10.dtd">
<svg version="1.0" xmlns="http://www.w3.org/2000/svg"
 width="30px" height="30px" viewBox="0 0 752.000000 752.000000"
 preserveAspectRatio="xMidYMid meet">
<metadata>
Created by potrace 1.16, written by Peter Selinger 2001-2019
</metadata>
<g transform="translate(0.000000,752.000000) scale(0.100000,-0.100000)"
fill="#9EE2FF" stroke="none">
<path d="M3695 5711 c-87 -53 -215 -241 -388 -571 -177 -338 -277 -623 -277
-790 0 -145 68 -333 164 -452 87 -109 215 -192 366 -239 62 -20 97 -24 200
-24 103 0 138 4 200 24 253 79 423 249 501 501 35 112 33 271 -4 402 -110 388
-492 1078 -639 1154 -37 19 -87 18 -123 -5z"/>
<path d="M4909 3966 c-93 -63 -254 -319 -435 -691 -102 -209 -153 -340 -191
-485 -75 -291 46 -608 295 -774 132 -87 248 -121 412 -120 136 0 211 17 325
74 311 153 465 502 372 842 -37 136 -106 306 -203 499 -190 381 -345 617 -436
665 -41 22 -98 17 -139 -10z"/>
<path d="M2465 3872 c-149 -91 -528 -786 -631 -1157 -96 -344 56 -690 373
-849 112 -56 180 -71 333 -70 117 0 145 4 212 26 123 41 204 92 298 187 67 67
95 105 128 171 142 284 106 520 -163 1055 -172 344 -317 567 -407 628 -48 32
-99 35 -143 9z"/>
</g>
</svg>
