<?xml version="1.0" standalone="no"?>
<!DOCTYPE svg PUBLIC "-//W3C//DTD SVG 20010904//EN"
 "http://www.w3.org/TR/2001/REC-SVG-20010904/DTD/svg10.dtd">
<svg version="1.0" xmlns="http://www.w3.org/2000/svg"
 width="30px" height="30px" viewBox="0 0 752.000000 752.000000"
 preserveAspectRatio="xMidYMid meet">
<metadata>
Created by potrace 1.16, written by Peter Selinger 2001-2019
</metadata>
<g transform="translate(0.000000,752.000000) scale(0.100000,-0.100000)"
fill="#ffffff" stroke="none">
<path d="M3369 5721 c-73 -46 -83 -78 -87 -263 l-3 -157 -67 -22 c-36 -12 -97
-36 -136 -54 l-71 -33 -110 108 c-89 87 -118 110 -155 120 -106 29 -139 8
-402 -258 -200 -202 -226 -232 -238 -274 -13 -50 -8 -104 15 -148 8 -14 58
-69 113 -124 l100 -98 -33 -72 c-18 -39 -42 -101 -55 -138 l-22 -67 -157 -3
c-184 -4 -216 -14 -262 -87 l-29 -45 0 -345 c0 -341 0 -347 23 -383 50 -82 96
-98 283 -98 l142 0 27 -77 c14 -43 39 -105 54 -138 l28 -60 -107 -110 c-87
-89 -110 -119 -120 -155 -29 -106 -8 -139 258 -402 202 -200 232 -226 274
-238 50 -13 104 -8 148 15 14 8 69 58 124 113 l98 100 87 -38 c47 -20 110 -45
139 -54 l52 -18 0 -142 c0 -187 16 -233 98 -283 36 -23 42 -23 382 -23 340 0
346 0 382 23 82 50 98 96 98 282 l0 142 78 28 c42 15 103 41 136 57 l58 30
112 -110 c120 -119 161 -141 235 -127 66 12 114 52 332 272 176 178 217 226
227 259 29 99 12 137 -120 270 l-110 112 30 58 c16 33 42 94 57 137 l28 77
142 0 c186 0 232 16 282 98 23 36 23 42 23 383 l0 345 -29 45 c-46 73 -78 83
-262 87 l-157 3 -27 77 c-15 42 -41 103 -57 136 l-30 58 110 112 c132 133 149
171 120 270 -10 34 -51 81 -232 264 -268 270 -301 291 -411 261 -30 -8 -67
-37 -150 -119 l-110 -109 -73 34 c-40 19 -101 44 -136 56 l-65 21 -3 157 c-4
184 -14 216 -87 262 l-45 29 -346 0 -346 0 -45 -29z m597 -1141 c301 -77 533
-309 615 -615 17 -62 22 -109 22 -205 0 -96 -5 -143 -22 -205 -82 -307 -309
-534 -616 -616 -62 -17 -109 -22 -205 -22 -96 0 -143 5 -205 22 -307 82 -534
309 -616 616 -17 62 -22 109 -22 205 0 96 5 143 22 205 90 338 361 581 706
635 83 12 228 4 321 -20z"/>
</g>
</svg>
