<?xml version="1.0" standalone="no"?>
<!DOCTYPE svg PUBLIC "-//W3C//DTD SVG 20010904//EN"
 "http://www.w3.org/TR/2001/REC-SVG-20010904/DTD/svg10.dtd">
<svg version="1.0" xmlns="http://www.w3.org/2000/svg"
 width="30px" height="30px" viewBox="0 0 200.000000 200.000000"
 preserveAspectRatio="xMidYMid meet">
<metadata>
Created by potrace 1.16, written by Peter Selinger 2001-2019
</metadata>
<g transform="translate(0.000000,200.000000) scale(0.100000,-0.100000)"
fill="#000000" stroke="none">
<path fill="#FFD748" d="M1261 1956 c-8 -9 -11 -54 -9 -132 l3 -119 40 0 40 0 3 119 c3 126
-3 146 -43 146 -12 0 -28 -6 -34 -14z"/>
<path fill="#FFD748" d="M801 1758 c-12 -32 -5 -46 46 -99 35 -36 54 -48 86 -53 23 -3 52 -9
65 -12 18 -5 22 -2 22 16 0 14 -26 49 -72 96 -61 63 -76 74 -105 74 -26 0 -36
-5 -42 -22z"/>
<path fill="#FFD748" d="M1652 1707 c-66 -67 -73 -77 -70 -108 3 -30 6 -34 37 -37 30 -3 41 4
107 71 75 74 90 107 62 135 -28 28 -62 13 -136 -61z"/>
<path fill="#FFD748" d="M1200 1631 c-35 -11 -108 -49 -114 -59 -3 -5 17 -23 43 -41 77 -49
153 -138 191 -224 29 -63 40 -77 71 -91 57 -25 121 -79 149 -124 14 -23 28
-42 32 -42 17 0 58 79 74 140 44 172 -36 345 -194 418 -46 21 -74 27 -142 29
-47 1 -96 -1 -110 -6z"/>
<path fill="#ebebeb" d="M733 1565 c-109 -30 -212 -101 -274 -191 -28 -41 -33 -44 -73 -44
-107 0 -234 -67 -299 -156 -53 -72 -72 -136 -72 -234 0 -74 4 -93 32 -152 39
-84 114 -160 191 -196 l57 -27 515 0 515 0 55 26 c66 32 123 86 158 154 24 44
27 62 27 145 0 84 -3 101 -27 146 -33 63 -113 137 -173 160 -34 12 -47 24 -52
43 -24 100 -134 236 -231 285 -108 55 -240 70 -349 41z"/>
<path fill="#FFD748" d="M1720 1311 c-33 -62 -2 -81 130 -81 115 0 140 9 140 50 0 41 -25 50
-145 50 -103 0 -115 -2 -125 -19z"/>
<path fill="#FFD748" d="M1598 994 c-3 -3 -4 -24 -1 -47 4 -35 16 -53 66 -104 63 -64 98 -78
125 -51 26 26 11 54 -66 131 -70 70 -106 90 -124 71z"/>
<path fill="#9EE2FF" d="M407 438 c-78 -98 -93 -138 -65 -166 29 -29 57 -13 113 62 54 74 66
111 43 134 -24 24 -56 13 -91 -30z"/>
<path fill="#9EE2FF" d="M758 468 c-25 -21 -108 -144 -108 -161 0 -23 28 -47 55 -47 18 0 37
18 79 77 59 82 66 102 40 127 -19 19 -45 20 -66 4z"/>
<path fill="#9EE2FF" d="M1040 413 c-74 -100 -78 -144 -14 -151 27 -3 35 5 82 72 52 74 63
111 40 134 -28 28 -57 13 -108 -55z"/>
<path fill="#9EE2FF" d="M215 169 c-51 -71 -57 -85 -49 -108 7 -19 17 -27 41 -29 28 -3 35 3
89 79 55 79 57 83 43 108 -9 16 -25 27 -41 29 -22 3 -34 -8 -83 -79z"/>
<path fill="#9EE2FF" d="M583 228 c-34 -37 -103 -140 -103 -154 0 -21 30 -44 56 -44 18 0 37
18 79 74 30 41 55 86 55 98 0 50 -51 65 -87 26z"/>
<path fill="#9EE2FF" d="M865 169 c-51 -71 -57 -85 -49 -108 7 -19 17 -27 41 -29 28 -3 35 3
89 79 55 79 57 83 43 108 -9 16 -25 27 -41 29 -22 3 -34 -8 -83 -79z"/>
</g>
</svg>
