<?xml version="1.0" standalone="no"?>
<!DOCTYPE svg PUBLIC "-//W3C//DTD SVG 20010904//EN"
 "http://www.w3.org/TR/2001/REC-SVG-20010904/DTD/svg10.dtd">
<svg version="1.0" xmlns="http://www.w3.org/2000/svg"
 width="30px" height="30px" viewBox="0 0 200.000000 200.000000"
 preserveAspectRatio="xMidYMid meet">
<metadata>
Created by potrace 1.16, written by Peter Selinger 2001-2019
</metadata>
<g transform="translate(0.000000,200.000000) scale(0.100000,-0.100000)"
fill="#000000" stroke="none">
<path fill="#dadada" d="M1299 1936 c-31 -12 -72 -32 -91 -44 -60 -37 -154 -144 -191 -219
l-36 -71 67 -33 c114 -55 227 -184 265 -301 4 -9 29 -29 57 -43 28 -14 68 -42
90 -61 48 -44 97 -139 106 -206 l7 -50 35 7 c56 10 135 43 185 76 59 39 145
132 177 191 20 39 22 50 12 72 l-11 26 -109 -7 c-94 -5 -118 -3 -179 15 -134
41 -250 157 -290 291 -22 72 -21 191 2 251 26 70 29 95 10 113 -22 22 -39 21
-106 -7z"/>
<path fill="#ebebeb" d="M751 1579 c-113 -20 -244 -105 -301 -197 -24 -39 -27 -40 -91 -44
-204 -15 -367 -206 -346 -408 14 -129 88 -245 194 -302 85 -46 132 -50 628
-46 l460 3 55 26 c78 36 124 80 160 151 26 52 30 72 30 138 0 108 -21 163 -89
231 -34 33 -74 63 -103 73 -42 17 -48 22 -67 76 -28 77 -96 167 -161 215 -98
72 -246 106 -369 84z"/>
<path fill="#9EE2FF" d="M424 492 c-15 -10 -92 -117 -105 -145 -17 -38 4 -69 44 -65 26 2 40
15 84 77 53 74 63 107 41 129 -13 13 -47 16 -64 4z"/>
<path fill="#9EE2FF" d="M710 433 c-72 -99 -78 -144 -17 -151 29 -4 47 14 109 104 38 57 42
88 14 106 -31 21 -57 7 -106 -59z"/>
<path fill="#9EE2FF" d="M1094 492 c-6 -4 -35 -40 -64 -81 -46 -64 -52 -76 -44 -100 7 -19 17
-27 41 -29 28 -3 35 3 87 75 56 77 66 109 44 131 -13 13 -47 16 -64 4z"/>
<path fill="#9EE2FF" d="M268 263 c-16 -4 -89 -99 -117 -150 -21 -41 25 -87 64 -66 25 14 115
146 115 168 0 36 -26 56 -62 48z"/>
<path fill="#9EE2FF" d="M598 262 c-28 -12 -118 -144 -118 -174 0 -31 30 -53 59 -43 11 3 42
37 70 76 56 76 66 120 32 139 -22 11 -20 11 -43 2z"/>
<path fill="#9EE2FF" d="M922 253 c-33 -29 -112 -144 -112 -163 0 -20 30 -50 51 -50 28 0 139
142 139 178 0 18 -33 52 -51 52 -4 0 -16 -8 -27 -17z"/>
</g>
</svg>
