<?xml version="1.0" standalone="no"?>
<!DOCTYPE svg PUBLIC "-//W3C//DTD SVG 20010904//EN"
 "http://www.w3.org/TR/2001/REC-SVG-20010904/DTD/svg10.dtd">
<svg version="1.0" xmlns="http://www.w3.org/2000/svg"
 width="30px" height="30px" viewBox="0 0 200.000000 200.000000"
 preserveAspectRatio="xMidYMid meet">
<metadata>
Created by potrace 1.16, written by Peter Selinger 2001-2019
</metadata>
<g transform="translate(0.000000,200.000000) scale(0.100000,-0.100000)"
fill="#c2fffb" stroke="none">
<path d="M935 1965 c-22 -21 -25 -33 -25 -100 l0 -76 -61 71 c-69 79 -84 90
-129 90 -45 0 -80 -38 -80 -89 0 -37 10 -52 135 -198 l135 -158 0 -173 0 -174
-47 26 c-25 15 -95 54 -154 89 l-107 62 -62 183 c-35 100 -71 193 -81 206 -49
62 -159 23 -159 -56 0 -13 14 -62 30 -107 l31 -83 -56 31 c-68 39 -116 41
-150 6 -18 -17 -25 -35 -25 -63 0 -46 20 -70 91 -108 l52 -29 -59 -11 c-33 -6
-76 -15 -98 -18 -84 -16 -115 -99 -57 -157 16 -16 38 -29 48 -29 10 0 99 16
198 35 99 19 188 35 198 35 18 0 306 -160 306 -170 1 -7 -274 -161 -297 -167
-10 -2 -102 12 -204 31 -102 20 -193 36 -202 36 -30 0 -76 -55 -76 -90 0 -67
31 -88 158 -110 39 -7 72 -16 72 -19 0 -3 -21 -17 -46 -30 -76 -41 -101 -90
-72 -144 29 -56 85 -62 164 -16 30 17 54 29 54 27 0 -2 -14 -42 -31 -88 -22
-61 -29 -94 -24 -117 12 -65 103 -91 149 -42 14 15 47 94 87 209 l63 185 150
88 151 87 3 -172 c2 -126 -1 -176 -10 -189 -7 -9 -68 -81 -135 -158 -114 -130
-123 -145 -123 -182 0 -54 34 -89 87 -89 34 0 45 7 111 76 l72 76 0 -61 c0
-65 18 -114 45 -125 9 -3 34 -6 55 -6 59 0 80 33 80 127 l0 74 61 -71 c34 -39
69 -75 79 -80 32 -17 78 -11 106 13 34 30 38 96 7 130 -11 12 -72 84 -137 159
l-116 136 2 171 3 171 152 -88 152 -87 63 -185 c35 -101 73 -196 84 -209 32
-37 97 -36 130 2 30 36 30 65 -1 157 -14 40 -25 77 -25 81 0 4 24 -6 53 -22
65 -36 109 -37 142 -4 18 17 25 35 25 63 0 48 -11 62 -82 105 l-58 34 73 12
c138 24 167 42 167 109 0 38 -45 92 -77 92 -10 0 -99 -16 -198 -35 -99 -19
-188 -35 -199 -35 -18 0 -306 160 -306 170 0 3 69 44 153 92 l152 87 175 -34
c96 -19 192 -35 213 -35 81 0 117 91 60 149 -22 22 -44 30 -108 40 -44 7 -84
15 -89 18 -4 3 15 19 43 35 28 16 58 39 66 51 23 33 19 84 -10 112 -34 35 -84
33 -151 -6 -30 -17 -54 -28 -54 -25 0 3 14 44 31 91 32 89 33 123 2 157 -23
26 -75 33 -109 15 -26 -13 -37 -38 -99 -213 l-71 -198 -109 -64 c-61 -35 -129
-74 -152 -88 l-43 -25 0 176 0 175 107 122 c59 68 119 138 135 156 58 68 24
162 -59 162 -34 0 -45 -7 -110 -77 l-73 -77 0 73 c0 63 -3 75 -25 96 -18 19
-35 25 -65 25 -30 0 -47 -6 -65 -25z"/>
</g>
</svg>
