<?xml version="1.0" standalone="no"?>
<!DOCTYPE svg PUBLIC "-//W3C//DTD SVG 20010904//EN"
 "http://www.w3.org/TR/2001/REC-SVG-20010904/DTD/svg10.dtd">
<svg version="1.0" xmlns="http://www.w3.org/2000/svg"
 width="30px" height="30px" viewBox="0 0 200.000000 200.000000"
 preserveAspectRatio="xMidYMid meet">
<metadata>
Created by potrace 1.16, written by Peter Selinger 2001-2019
</metadata>
<g transform="translate(0.000000,200.000000) scale(0.100000,-0.100000)"
fill="#000000" stroke="none">
<path fill="#FFA451" d="M970 1831 c-11 -21 -14 -288 -4 -315 8 -21 60 -21 68 0 10 27 7 294
-4 315 -6 10 -19 19 -30 19 -11 0 -24 -9 -30 -19z"/>
<path fill="#FFA451" d="M402 1508 c-23 -23 -11 -44 67 -122 64 -63 83 -77 100 -71 40 12 25
47 -57 128 -42 42 -82 77 -88 77 -5 0 -15 -5 -22 -12z"/>
<path fill="#FFA451" d="M1487 1442 c-81 -81 -95 -115 -56 -127 17 -6 36 8 100 71 44 43 79
86 79 94 0 18 -19 40 -35 40 -6 0 -45 -35 -88 -78z"/>
<path fill="#FFA451" d="M883 1365 c-160 -43 -286 -163 -334 -316 -36 -116 -19 -289 38 -375
l15 -24 398 0 398 0 15 24 c57 86 74 259 38 375 -73 236 -332 379 -568 316z"/>
<path fill="#FFA451" d="M64 926 c-3 -8 -4 -23 -2 -33 3 -17 17 -18 173 -18 l170 0 0 30 0 30
-168 3 c-140 2 -168 0 -173 -12z"/>
<path fill="#FFA451" d="M1594 926 c-3 -8 -4 -23 -2 -33 3 -17 17 -18 173 -18 l170 0 0 30 0
30 -168 3 c-140 2 -168 0 -173 -12z"/>
<path fill="#FFE5A4" d="M284 586 c-3 -8 -4 -23 -2 -33 3 -17 36 -18 718 -18 l715 0 0 30 0
30 -713 3 c-614 2 -713 0 -718 -12z"/>
<path fill="#FEDA7D" d="M405 391 c-3 -10 -3 -26 1 -35 6 -15 58 -16 589 -16 626 0 616 -1
600 50 -6 20 -11 20 -595 20 -565 0 -589 -1 -595 -19z"/>
<path fill="#FFCF55" d="M534 206 c-3 -8 -4 -23 -2 -33 3 -17 28 -18 468 -18 l465 0 0 30 0
30 -463 3 c-397 2 -463 0 -468 -12z"/>
</g>
</svg>
