<?xml version="1.0" standalone="no"?>
<!DOCTYPE svg PUBLIC "-//W3C//DTD SVG 20010904//EN"
 "http://www.w3.org/TR/2001/REC-SVG-20010904/DTD/svg10.dtd">
<svg version="1.0" xmlns="http://www.w3.org/2000/svg"
 width="30px" height="30px" viewBox="0 0 200.000000 200.000000"
 preserveAspectRatio="xMidYMid meet">
<metadata>
Created by potrace 1.16, written by Peter Selinger 2001-2019
</metadata>
<g transform="translate(0.000000,200.000000) scale(0.100000,-0.100000)"
fill="#FFB595" stroke="none">
<path d="M895 1967 c-21 -12 -53 -42 -70 -65 l-30 -44 -5 -538 -5 -539 -41
-29 c-91 -66 -152 -179 -161 -297 -14 -187 72 -340 237 -419 57 -27 78 -31
165 -34 83 -3 110 0 156 17 128 48 221 144 259 268 52 168 -7 360 -140 460
l-50 37 0 98 0 98 58 0 c66 0 92 18 92 62 0 40 -29 58 -93 58 l-57 0 0 80 0
80 58 0 c66 0 92 18 92 63 0 37 -34 57 -97 57 l-53 0 0 80 0 80 65 0 c70 0 85
11 85 64 0 36 -35 56 -96 56 l-52 0 -4 100 c-3 91 -6 103 -34 142 -43 62 -94
88 -174 88 -49 0 -75 -6 -105 -23z m290 -1576 c17 -11 45 -33 64 -49 33 -28
33 -29 17 -60 -51 -98 -156 -162 -266 -162 -133 0 -253 92 -290 221 l-8 27 51
-32 c45 -28 58 -31 127 -31 81 0 75 -3 189 80 41 30 76 32 116 6z"/>
</g>
</svg>
