<?xml version="1.0" standalone="no"?>
<!DOCTYPE svg PUBLIC "-//W3C//DTD SVG 20010904//EN"
 "http://www.w3.org/TR/2001/REC-SVG-20010904/DTD/svg10.dtd">
<svg version="1.0" xmlns="http://www.w3.org/2000/svg"
 width="30px" height="30px" viewBox="0 0 200.000000 200.000000"
 preserveAspectRatio="xMidYMid meet">
<metadata>
Created by potrace 1.16, written by Peter Selinger 2001-2019
</metadata>
<g transform="translate(0.000000,200.000000) scale(0.100000,-0.100000)"
fill="#000000" stroke="none">
<path fill="#ebebeb" d="M950 1973 c-99 -19 -228 -104 -297 -198 -41 -55 -53 -65 -79 -65
-164 0 -317 -95 -386 -240 -59 -121 -49 -288 24 -402 43 -69 129 -143 196
-170 l57 -23 565 0 565 0 57 28 c153 75 235 247 194 408 -30 115 -122 221
-220 251 -26 8 -41 20 -48 37 -5 14 -26 60 -46 101 -62 130 -195 238 -332 269
-44 10 -202 13 -250 4z"/>
<path fill="#9EE2FF" d="M603 782 c-6 -4 -37 -51 -68 -105 -58 -101 -66 -140 -34 -160 36 -23
63 0 122 104 31 56 57 109 57 119 0 37 -46 62 -77 42z"/>
<path fill="#9EE2FF" d="M888 778 c-9 -7 -42 -58 -74 -112 -48 -84 -55 -103 -48 -125 8 -21
16 -26 44 -26 33 0 37 4 92 98 32 55 58 111 58 126 0 46 -37 66 -72 39z"/>
<path fill="#ffe600" d="M1092 781 c-19 -12 -143 -377 -135 -398 10 -28 24 -33 96 -33 40 0
67 -4 67 -11 0 -5 -14 -65 -31 -131 -16 -67 -29 -135 -27 -152 3 -26 7 -31 33
-34 17 -1 35 1 41 5 24 18 354 494 354 512 0 37 -27 51 -96 51 -35 0 -64 3
-64 7 0 3 14 37 31 74 30 66 31 69 15 94 -16 25 -19 25 -144 25 -70 0 -133 -4
-140 -9z"/>
<path fill="#9EE2FF" d="M408 439 c-22 -13 -128 -199 -128 -226 0 -28 23 -45 56 -41 24 3 37
18 86 103 56 97 66 128 50 151 -11 17 -45 24 -64 13z"/>
<path fill="#9EE2FF" d="M698 439 c-23 -13 -128 -192 -128 -218 0 -38 11 -51 45 -51 32 0 36
5 94 106 34 58 61 114 61 124 0 11 -10 26 -22 34 -26 18 -27 19 -50 5z"/>
</g>
</svg>
