<?xml version="1.0" standalone="no"?>
<!DOCTYPE svg PUBLIC "-//W3C//DTD SVG 20010904//EN"
 "http://www.w3.org/TR/2001/REC-SVG-20010904/DTD/svg10.dtd">
<svg version="1.0" xmlns="http://www.w3.org/2000/svg"
 width="30px" height="30px" viewBox="0 0 752.000000 752.000000"
 preserveAspectRatio="xMidYMid meet">
<metadata>
Created by potrace 1.16, written by Peter Selinger 2001-2019
</metadata>
<g transform="translate(0.000000,752.000000) scale(0.100000,-0.100000)"
fill="#cecece" stroke="none">
<path d="M3855 5359 c-84 -12 -199 -71 -261 -134 -165 -165 -176 -434 -24
-599 37 -40 48 -46 82 -46 28 0 46 7 63 25 37 36 33 83 -9 134 -49 59 -69 118
-64 188 7 101 62 178 163 231 43 23 63 27 135 27 70 0 94 -4 135 -24 69 -35
131 -100 168 -179 29 -61 32 -75 32 -167 0 -88 -3 -107 -27 -157 -49 -104
-151 -194 -274 -240 -58 -22 -71 -22 -662 -28 l-604 -5 -19 -24 c-27 -33 -25
-86 6 -116 l24 -25 588 0 c649 0 665 2 796 62 315 145 441 491 290 798 -99
202 -313 313 -538 279z"/>
<path d="M5240 5244 c-287 -76 -469 -343 -421 -620 16 -88 70 -203 125 -259
36 -39 48 -45 83 -45 51 0 85 33 85 83 0 26 -11 49 -40 86 -116 146 -110 326
15 461 173 187 459 180 632 -16 142 -161 171 -389 74 -592 -41 -85 -168 -207
-263 -254 -161 -78 -3 -72 -1823 -78 l-1629 -5 -19 -24 c-27 -33 -25 -86 6
-117 l24 -24 1648 2 1648 3 73 23 c276 85 463 266 543 522 34 107 34 283 0
390 -75 243 -245 413 -462 465 -80 18 -226 18 -299 -1z"/>
<path d="M1532 4383 c-17 -6 -42 -57 -42 -83 0 -12 13 -35 29 -51 l29 -29 352
0 351 0 24 25 c34 33 34 93 2 123 -23 22 -27 22 -378 21 -195 0 -360 -3 -367
-6z"/>
<path d="M1532 4003 c-17 -6 -42 -57 -42 -83 0 -12 13 -35 29 -51 29 -29 31
-29 141 -29 104 0 112 1 135 25 34 33 34 93 2 123 -21 20 -33 22 -138 21 -63
0 -120 -3 -127 -6z"/>
<path d="M1522 3630 c-43 -40 -37 -114 11 -139 16 -8 421 -12 1502 -14 l1480
-2 65 -22 c215 -74 363 -239 392 -438 32 -225 -108 -450 -316 -510 -171 -50
-370 36 -447 190 -20 42 -24 64 -24 140 0 78 4 97 27 141 15 27 34 56 43 64
72 60 42 170 -46 170 -32 0 -45 -7 -78 -41 -180 -188 -172 -502 18 -689 114
-112 239 -163 401 -163 169 0 290 51 411 172 135 135 196 299 186 495 -13 275
-173 496 -438 608 -144 60 -72 58 -1688 58 -1470 0 -1477 0 -1499 -20z"/>
<path d="M1532 3293 c-17 -6 -42 -57 -42 -83 0 -12 13 -35 29 -51 29 -29 31
-29 139 -29 95 0 113 3 136 21 35 28 37 95 3 127 -21 20 -33 22 -138 21 -63 0
-120 -3 -127 -6z"/>
<path d="M2203 3285 c-42 -30 -39 -108 6 -142 12 -9 106 -12 363 -13 213 0
367 -4 400 -11 144 -30 293 -147 337 -263 85 -230 -33 -469 -257 -517 -99 -21
-212 19 -286 102 -48 52 -67 99 -69 163 -1 66 16 116 61 174 62 80 44 155 -40
168 -31 5 -41 1 -77 -31 -63 -58 -111 -164 -118 -262 -10 -142 32 -258 128
-353 150 -149 387 -183 582 -84 28 15 81 57 117 93 113 114 160 234 160 406 0
273 -179 491 -464 567 -62 16 -113 18 -446 18 -321 0 -379 -2 -397 -15z"/>
</g>
</svg>
