<?xml version="1.0" standalone="no"?>
<!DOCTYPE svg PUBLIC "-//W3C//DTD SVG 20010904//EN"
 "http://www.w3.org/TR/2001/REC-SVG-20010904/DTD/svg10.dtd">
<svg version="1.0" xmlns="http://www.w3.org/2000/svg"
 width="200.000000pt" height="200.000000pt" viewBox="0 0 200.000000 200.000000"
 preserveAspectRatio="xMidYMid meet">
<metadata>
Created by potrace 1.16, written by Peter Selinger 2001-2019
</metadata>
<g transform="translate(0.000000,200.000000) scale(0.100000,-0.100000)"
fill="#000000" stroke="none">
<path fill="#ebebeb" d="M1000 1974 c-179 -32 -334 -134 -416 -274 -15 -25 -23 -28 -93 -33
-134 -11 -232 -57 -317 -149 -55 -60 -90 -121 -108 -193 -61 -233 60 -465 289
-556 l60 -24 575 -3 c613 -4 652 -1 743 44 238 121 289 443 100 632 -45 45
-143 102 -176 102 -9 0 -17 14 -22 37 -14 79 -67 166 -150 248 -81 81 -144
120 -243 151 -49 15 -198 26 -242 18z"/>
<path fill="#cecece" d="M682 658 c-15 -15 -15 -61 0 -76 9 -9 118 -12 431 -12 362 0 424 -2
452 -16 115 -54 77 -224 -50 -224 -53 0 -90 28 -115 86 -20 46 -48 61 -81 44
-18 -10 -21 -18 -16 -56 15 -138 181 -215 315 -148 171 85 141 357 -44 403
-63 16 -876 15 -892 -1z"/>
<path fill="#cecece" d="M274 476 c-3 -8 -4 -27 -2 -43 l3 -28 320 -5 c297 -5 322 -6 354 -25
96 -57 89 -188 -13 -239 -72 -36 -170 15 -182 96 -4 21 -15 49 -24 61 -15 18
-22 20 -46 12 -25 -9 -29 -16 -32 -53 -7 -99 74 -199 180 -221 232 -50 384
237 211 401 -59 56 -73 58 -433 58 -276 0 -332 -2 -336 -14z"/>
</g>
</svg>
